<svg width="1385" height="695" viewBox="0 0 1385 695" fill="none" xmlns="http://www.w3.org/2000/svg">
<path opacity="0.1" d="M692.5 208.659H623.25L692.5 139.216L761.75 208.659H692.5ZM761.75 69.7732L692.5 0.330322L623.25 69.7732H761.75ZM761.75 278.102L692.5 208.659L623.25 278.102H761.75ZM761.75 139.216L692.5 69.7732L623.25 139.216H761.75ZM831 208.659L761.75 139.216V208.659H831ZM761.75 0.330322V69.7732H831L761.75 0.330322ZM831 278.102L761.75 208.659V278.102H831ZM761.75 278.102V416.988L831 347.545L761.75 278.102ZM831 139.216L761.75 69.7732V139.216H831ZM761.75 486.431V555.874L831 486.431H761.75ZM761.75 694.759L831 625.316H761.75V694.759ZM761.75 416.988V486.431L831 416.988H761.75ZM761.75 555.874V625.316L831 555.874H761.75ZM900.25 208.659L831 139.216V208.659H900.25ZM831 0.330322V69.7732H900.25L831 0.330322ZM900.25 278.102L831 208.659V278.102H900.25ZM831 278.102V416.988L900.25 347.545L831 278.102ZM900.25 139.216L831 69.7732V139.216H900.25ZM831 486.431V555.874L900.25 486.431H831ZM831 694.759L900.25 625.316H831V694.759ZM831 416.988V486.431L900.25 416.988H831ZM831 555.874V625.316L900.25 555.874H831ZM969.5 208.659L900.25 139.216V208.659H969.5ZM900.25 0.330322V69.7732H969.5L900.25 0.330322ZM969.5 278.102L900.25 208.659V278.102H969.5ZM900.25 278.102V416.988L969.5 347.545L900.25 278.102ZM969.5 139.216L900.25 69.7732V139.216H969.5ZM900.25 486.431V555.874L969.5 486.431H900.25ZM900.25 694.759L969.5 625.316H900.25V694.759ZM900.25 416.988V486.431L969.5 416.988H900.25ZM900.25 555.874V625.316L969.5 555.874H900.25ZM1038.75 208.659L969.5 139.216V208.659H1038.75ZM969.5 0.330322V69.7732H1038.75L969.5 0.330322ZM1038.75 278.102L969.5 208.659V278.102H1038.75ZM969.5 278.102V416.988L1038.75 347.545L969.5 278.102ZM1038.75 139.216L969.5 69.7732V139.216H1038.75ZM969.5 486.431V555.874L1038.75 486.431H969.5ZM969.5 694.759L1038.75 625.316H969.5V694.759ZM969.5 416.988V486.431L1038.75 416.988H969.5ZM969.5 555.874V625.316L1038.75 555.874H969.5ZM1108 208.659L1038.75 139.216V208.659H1108ZM1038.75 0.330322V69.7732H1108L1038.75 0.330322ZM1108 278.102L1038.75 208.659V278.102H1108ZM1038.75 278.102V416.988L1108 347.545L1038.75 278.102ZM1108 139.216L1038.75 69.7732V139.216H1108ZM1038.75 486.431V555.874L1108 486.431H1038.75ZM1038.75 694.759L1108 625.316H1038.75V694.759ZM1038.75 416.988V486.431L1108 416.988H1038.75ZM1038.75 555.874V625.316L1108 555.874H1038.75ZM1177.25 208.659L1108 139.216V208.659H1177.25ZM1108 0.330322V69.7732H1177.25L1108 0.330322ZM1108 278.102H1177.25L1108 208.659V278.102ZM1177.25 139.216L1108 69.7732V139.216H1177.25ZM1108 486.431V555.874L1177.25 486.431H1108ZM1108 694.759L1177.25 625.316H1108V694.759ZM1108 486.431L1177.25 416.988H1108V486.431ZM1108 416.988L1177.25 347.545L1108 278.102V416.988ZM1108 555.874V625.316L1177.25 555.874H1108ZM1177.25 208.659H1246.5L1177.25 139.216V208.659ZM1177.25 0.330322V69.7732H1246.5L1177.25 0.330322ZM1177.25 278.102H1246.5L1177.25 208.659V278.102ZM1246.5 139.216L1177.25 69.7732V139.216H1246.5ZM1177.25 555.874L1246.5 486.431H1177.25V555.874ZM1177.25 694.759L1246.5 625.316H1177.25V694.759ZM1177.25 486.431L1246.5 416.988H1177.25V486.431ZM1177.25 416.988L1246.5 347.545L1177.25 278.102V416.988ZM1177.25 555.874V625.316L1246.5 555.874H1177.25ZM1246.5 208.659H1315.75L1246.5 139.216V208.659ZM1246.5 0.330322V69.7732H1315.75L1246.5 0.330322ZM1246.5 278.102H1315.75L1246.5 208.659V278.102ZM1246.5 139.216H1315.75L1246.5 69.7732V139.216ZM1246.5 555.874L1315.75 486.431H1246.5V555.874ZM1246.5 694.759L1315.75 625.316H1246.5V694.759ZM1246.5 486.431L1315.75 416.988H1246.5V486.431ZM1246.5 416.988L1315.75 347.545L1246.5 278.102V416.988ZM1246.5 625.316L1315.75 555.874H1246.5V625.316ZM1385 208.659L1315.75 139.216V208.659H1385ZM1315.75 0.330322V69.7732H1385L1315.75 0.330322ZM1385 278.102L1315.75 208.659V278.102H1385ZM1315.75 69.7732V139.216H1385L1315.75 69.7732ZM1385 486.431H1315.75V555.874L1385 486.431ZM1385 625.316H1315.75V694.759L1385 625.316ZM1385 416.988H1315.75V486.431L1385 416.988ZM1315.75 416.988L1385 347.545L1315.75 278.102V416.988ZM1385 555.874H1315.75V625.316L1385 555.874ZM623.25 347.545L692.5 416.988L761.75 347.545L692.5 278.102L623.25 347.545ZM623.25 486.431L692.5 555.874L761.75 486.431H623.25ZM623.25 625.316L692.5 694.759L761.75 625.316H623.25ZM623.25 416.988L692.5 486.431L761.75 416.988H623.25ZM623.25 555.874L692.5 625.316L761.75 555.874H623.25ZM623.25 208.659V139.216L554 208.659H623.25ZM623.25 0.330322L554 69.7732H623.25V0.330322ZM623.25 278.102V208.659L554 278.102H623.25ZM623.25 278.102L554 347.545L623.25 416.988V278.102ZM623.25 139.216V69.7732L554 139.216H623.25ZM554 486.431L623.25 555.874V486.431H554ZM623.25 694.759V625.316H554L623.25 694.759ZM554 416.988L623.25 486.431V416.988H554ZM554 555.874L623.25 625.316V555.874H554ZM554 208.659V139.216L484.75 208.659H554ZM554 0.330322L484.75 69.7732H554V0.330322ZM554 278.102V208.659L484.75 278.102H554ZM554 278.102L484.75 347.545L554 416.988V278.102ZM554 139.216V69.7732L484.75 139.216H554ZM484.75 486.431L554 555.874V486.431H484.75ZM554 694.759V625.316H484.75L554 694.759ZM484.75 416.988L554 486.431V416.988H484.75ZM484.75 555.874L554 625.316V555.874H484.75ZM484.75 208.659V139.216L415.5 208.659H484.75ZM484.75 0.330322L415.5 69.7732H484.75V0.330322ZM484.75 278.102V208.659L415.5 278.102H484.75ZM484.75 278.102L415.5 347.545L484.75 416.988V278.102ZM484.75 139.216V69.7732L415.5 139.216H484.75ZM415.5 486.431L484.75 555.874V486.431H415.5ZM484.75 694.759V625.316H415.5L484.75 694.759ZM415.5 416.988L484.75 486.431V416.988H415.5ZM415.5 555.874L484.75 625.316V555.874H415.5ZM415.5 208.659V139.216L346.25 208.659H415.5ZM415.5 0.330322L346.25 69.7732H415.5V0.330322ZM415.5 278.102V208.659L346.25 278.102H415.5ZM415.5 278.102L346.25 347.545L415.5 416.988V278.102ZM415.5 139.216V69.7732L346.25 139.216H415.5ZM346.25 486.431L415.5 555.874V486.431H346.25ZM415.5 694.759V625.316H346.25L415.5 694.759ZM346.25 416.988L415.5 486.431V416.988H346.25ZM346.25 555.874L415.5 625.316V555.874H346.25ZM346.25 208.659V139.216L277 208.659H346.25ZM346.25 0.330322L277 69.7732H346.25V0.330322ZM346.25 278.102V208.659L277 278.102H346.25ZM346.25 278.102L277 347.545L346.25 416.988V278.102ZM346.25 139.216V69.7732L277 139.216H346.25ZM277 486.431L346.25 555.874V486.431H277ZM346.25 694.759V625.316H277L346.25 694.759ZM277 416.988L346.25 486.431V416.988H277ZM277 555.874L346.25 625.316V555.874H277ZM277 208.659V139.216L207.75 208.659H277ZM277 0.330322L207.75 69.7732H277V0.330322ZM277 208.659L207.75 278.102H277V208.659ZM277 278.102L207.75 347.545L277 416.988V278.102ZM277 139.216V69.7732L207.75 139.216H277ZM207.75 486.431L277 555.874V486.431H207.75ZM277 694.759V625.316H207.75L277 694.759ZM207.75 416.988L277 486.431V416.988H207.75ZM207.75 555.874L277 625.316V555.874H207.75ZM207.75 139.216L138.5 208.659H207.75V139.216ZM207.75 0.330322L138.5 69.7732H207.75V0.330322ZM207.75 208.659L138.5 278.102H207.75V208.659ZM207.75 278.102L138.5 347.545L207.75 416.988V278.102ZM207.75 139.216V69.7732L138.5 139.216H207.75ZM138.5 486.431L207.75 555.874V486.431H138.5ZM207.75 694.759V625.316H138.5L207.75 694.759ZM207.75 416.988H138.5L207.75 486.431V416.988ZM138.5 555.874L207.75 625.316V555.874H138.5ZM138.5 139.216L69.25 208.659H138.5V139.216ZM138.5 0.330322L69.25 69.7732H138.5V0.330322ZM138.5 208.659L69.25 278.102H138.5V208.659ZM138.5 278.102L69.25 347.545L138.5 416.988V278.102ZM138.5 69.7732L69.25 139.216H138.5V69.7732ZM138.5 486.431H69.25L138.5 555.874V486.431ZM138.5 694.759V625.316H69.25L138.5 694.759ZM138.5 416.988H69.25L138.5 486.431V416.988ZM69.25 555.874L138.5 625.316V555.874H69.25ZM0 208.659H69.25V139.216L0 208.659ZM0 69.7732H69.25V0.330322L0 69.7732ZM0 278.102H69.25V208.659L0 278.102ZM69.25 278.102L0 347.545L69.25 416.988V278.102ZM0 139.216H69.25V69.7732L0 139.216ZM0 486.431L69.25 555.874V486.431H0ZM69.25 694.759V625.316H0L69.25 694.759ZM0 416.988L69.25 486.431V416.988H0ZM0 555.874L69.25 625.316V555.874H0Z" fill="url(#paint0_radial)"/>
<defs>
<radialGradient id="paint0_radial" cx="0" cy="0" r="1" gradientUnits="userSpaceOnUse" gradientTransform="translate(713.808 351.124) scale(680.195 682.09)">
<stop stop-color="white"/>
<stop offset="0.11" stop-color="#FAFAFA"/>
<stop offset="0.24" stop-color="#EBEBEB"/>
<stop offset="0.38" stop-color="#D2D2D2"/>
<stop offset="0.53" stop-color="#B0B0B0"/>
<stop offset="0.68" stop-color="#848484"/>
<stop offset="0.84" stop-color="#4F4F4F"/>
<stop offset="1"/>
</radialGradient>
</defs>
</svg>
